<?xml version="1.0" ?><svg data-name="Layer 1" id="Layer_1" viewBox="0 0 64 64" xmlns="http://www.w3.org/2000/svg"><defs><style>.cls-1{fill:#4fbe9f;}.cls-2{fill:#09816c;}</style></defs><title/><path class="cls-1" d="M52.57,41.55H50.38a.59.59,0,0,0-.57.42l-1.64,5.26A6.71,6.71,0,0,1,41.76,52H29.22a3.37,3.37,0,0,1-3.38-3.37V34.43h9.08a4.31,4.31,0,0,1,4.32,4.32v1.11a.59.59,0,0,0,.6.59H41.7a.59.59,0,0,0,.6-.59V23.52a.6.6,0,0,0-.6-.6H39.84a.6.6,0,0,0-.6.6v1.74a4.32,4.32,0,0,1-4.32,4.32H25.84V15.42a3.37,3.37,0,0,1,3.38-3.37H41.13a5.57,5.57,0,0,1,5.57,5.57V21a.59.59,0,0,0,.6.59h2.18a.58.58,0,0,0,.59-.54L51,9.49A1.38,1.38,0,0,0,49.61,8H11.78a1,1,0,0,0-.95.95v2.14a1,1,0,0,0,.95,1H14.2a3.37,3.37,0,0,1,3.37,3.37V48.58A3.37,3.37,0,0,1,14.2,52H11.78a1,1,0,0,0-.95,1v2.14a1,1,0,0,0,.95,1H49.92a1.38,1.38,0,0,0,1.36-1.17l1.88-12.6A.59.59,0,0,0,52.57,41.55Z"/><path class="cls-2" d="M52.57,41.55H50.38a.59.59,0,0,0-.57.42l-1.64,5.26A6.71,6.71,0,0,1,41.76,52H29.22a3.37,3.37,0,0,1-3.38-3.37V34.43H20.46a1.13,1.13,0,0,0-1.13,1.13v.22a1.14,1.14,0,0,0,1.13,1.13h0A1.12,1.12,0,0,1,21.58,38h0a5.15,5.15,0,0,1-1.51,3.65h0a8.53,8.53,0,0,0-2.5,6v.87A3.37,3.37,0,0,1,14.2,52H11.78a1,1,0,0,0-.95,1v2.14a1,1,0,0,0,.95,1H49.92a1.38,1.38,0,0,0,1.36-1.17l1.88-12.6A.59.59,0,0,0,52.57,41.55Z"/></svg>